<svg xmlns="http://www.w3.org/2000/svg" width="153.617" height="45.62" viewBox="0 0 153.617 45.62">
  <path id="Shape_24" data-name="Shape 24" d="M20.047,44.924a.565.565,0,0,1,.024-.115,1.8,1.8,0,0,1-1.179-1.685,1.723,1.723,0,0,1,.023-.227.657.657,0,0,1-.254.054.7.7,0,0,1-.694-.7.641.641,0,0,1,.034-.17.7.7,0,0,1-.265.054.7.7,0,1,1,.694-.7.644.644,0,0,1-.036.168.687.687,0,0,1,.907.381,1.766,1.766,0,0,1,.35-.335,1.154,1.154,0,1,1,1.665-1.029,1.143,1.143,0,0,1-.278.732,1.791,1.791,0,0,1,1.013.607,2.787,2.787,0,1,1,.315,1.741,1.786,1.786,0,0,1-.963,1.06.726.726,0,0,1,.03.155.693.693,0,1,1-1.386,0Zm-3.467-.7a1.156,1.156,0,1,1,1.156,1.162A1.159,1.159,0,0,1,16.581,44.227Zm27.442.348a.7.7,0,0,1,.694-.7c.016,0,.031.009.048.011a2.746,2.746,0,0,1-.063-2.923c-.034,0-.065.009-.1.009a1.779,1.779,0,0,1-1.358-.637,2.4,2.4,0,0,1,.03.289,2.774,2.774,0,1,1-5.482-.59,1.14,1.14,0,0,1-.536-2.127,1.158,1.158,0,1,1,1.627-1.055,1.147,1.147,0,0,1-.568.977,1.157,1.157,0,0,1,.556.551,2.745,2.745,0,0,1,3.951.726,1.805,1.805,0,0,1,.3-.943.665.665,0,0,1-.309.08.7.7,0,1,1,.694-.695.7.7,0,0,1-.052.255,1.773,1.773,0,0,1,1.149-.43,1.778,1.778,0,0,1,1.7,2.332,2.738,2.738,0,0,1,.782-.126,2.786,2.786,0,0,1,0,5.571,2.739,2.739,0,0,1-1.675-.58.693.693,0,1,1-1.386,0Zm-2.484-.348a.693.693,0,1,1,.692.7A.695.695,0,0,1,41.539,44.227Zm-30.5-2.206a2.775,2.775,0,0,1,1.026-2.147,2.662,2.662,0,0,1-.449.059A2.765,2.765,0,0,1,8.985,38a1.114,1.114,0,0,1-1.208.515,1.156,1.156,0,1,1-.44-.086,1.147,1.147,0,0,1,.255.028,1.161,1.161,0,0,1,.439-2.234,1.134,1.134,0,0,1,.873.424,2.78,2.78,0,0,1,1.187-1.821.691.691,0,0,1-.673-.692.68.68,0,0,1,.111-.357,1.775,1.775,0,0,1,.715-2.437,1.144,1.144,0,0,1-.25-.689,1.156,1.156,0,1,1,2.311,0,1.146,1.146,0,0,1-.28.735,1.8,1.8,0,0,1,.056,3.028,2.777,2.777,0,0,1,2.3,2.739,2.827,2.827,0,0,1-.088.664,1.143,1.143,0,0,1,.781-.316,1.159,1.159,0,0,1,1.156,1.161,1.144,1.144,0,0,1-.83,1.094,2.779,2.779,0,1,1-4.37,2.271ZM13.37,39.28a2.762,2.762,0,0,1,.437-.045,2.821,2.821,0,0,1,.317.032,1.138,1.138,0,0,1-.2-.592A2.771,2.771,0,0,1,13.37,39.28Zm14.591,3.554a.694.694,0,1,1,.695.7A.7.7,0,0,1,27.961,42.834ZM9.533,42.485a.782.782,0,0,1,.029-.145,1.025,1.025,0,0,1-.144.031,1.162,1.162,0,1,1,1.154-1.162,1.134,1.134,0,0,1-.2.611.686.686,0,0,1,.544.665.694.694,0,1,1-1.387,0Zm33.392-.113a.693.693,0,1,1,.692.694A.7.7,0,0,1,42.925,42.371Zm-13.577-.7a1.109,1.109,0,0,1,.069-.338,1.141,1.141,0,0,1-.473.107,1.158,1.158,0,0,1-1.155-1.162,1.145,1.145,0,0,1,1-1.13A1.773,1.773,0,0,1,30.5,36.856a1.823,1.823,0,0,1,.187.019,2.75,2.75,0,0,1-.246-1.122,2.774,2.774,0,1,1,3.086,2.754.693.693,0,1,1-.626,0,2.785,2.785,0,0,1-.643-.161,1.71,1.71,0,0,1,.032.31,1.8,1.8,0,0,1-1.791,1.8,1.694,1.694,0,0,1-.428-.059,1.749,1.749,0,0,1-.045.223,1.049,1.049,0,0,1,.862-.028.688.688,0,0,1,.478-.2.7.7,0,0,1,.277,1.332,1.15,1.15,0,0,1-2.3-.055Zm20.625-.812a.693.693,0,1,1,.694.7A.7.7,0,0,1,49.973,40.861ZM17.158,39.7a.693.693,0,1,1,.694.7A.7.7,0,0,1,17.158,39.7Zm31.659-.581a.693.693,0,1,1,.692.7A.694.694,0,0,1,48.817,39.119Zm-25.535-.231a.693.693,0,1,1,.692.7A.694.694,0,0,1,23.283,38.889ZM24.9,37.437a1.79,1.79,0,1,1,1.79,1.8A1.8,1.8,0,0,1,24.9,37.437Zm21.605.173a1.156,1.156,0,1,1,1.155,1.162A1.158,1.158,0,0,1,46.506,37.61ZM4.448,37.553a.694.694,0,1,1,.694.695A.7.7,0,0,1,4.448,37.553Zm44.485-1.162a1.766,1.766,0,0,1,.092-.541.69.69,0,1,1-.092-1.374.685.685,0,0,1,.659.532,1.772,1.772,0,0,1,1.131-.416,1.8,1.8,0,1,1-1.79,1.8Zm-9.36-.7a1.156,1.156,0,1,1,1.156,1.161A1.16,1.16,0,0,1,39.573,35.7ZM2.438,33.826a2.78,2.78,0,0,1,.826-1.98,1.745,1.745,0,0,1-.489.076,1.816,1.816,0,1,1,1.385-.671,2.742,2.742,0,0,1,1.053-.211,2.786,2.786,0,1,1-2.774,2.786ZM28.655,35.87a.693.693,0,1,1,.692.7A.695.695,0,0,1,28.655,35.87Zm-1.214-2.091A1.155,1.155,0,1,1,28.6,34.941,1.157,1.157,0,0,1,27.442,33.779Zm23.917.349a.693.693,0,1,1,.694.7A.695.695,0,0,1,51.359,34.128Zm-11.438-.581a.693.693,0,1,1,.692.7A.7.7,0,0,1,39.921,33.548Zm-4.738-2.322a2.771,2.771,0,0,1,2.484-2.757,1.786,1.786,0,1,1,1.232.147,2.779,2.779,0,1,1-3.716,2.61Zm13.4,1.277a1.156,1.156,0,1,1,1.155,1.16A1.159,1.159,0,0,1,48.585,32.5Zm-18.255.348a.693.693,0,1,1,.692.7A.694.694,0,0,1,30.331,32.851Zm21.606-.7a.694.694,0,1,1,.694.7A.695.695,0,0,1,51.937,32.156Zm-19.064-.465a.693.693,0,1,1,.692.7A.693.693,0,0,1,32.873,31.691ZM6.529,30.3a1.155,1.155,0,1,1,1.155,1.16A1.158,1.158,0,0,1,6.529,30.3Zm22.819-.813a1.791,1.791,0,1,1,1.791,1.8A1.794,1.794,0,0,1,29.348,29.485Zm4.218.7a.694.694,0,1,1,.694.7A.695.695,0,0,1,33.565,30.182ZM5.027,28.323a1.155,1.155,0,1,1,1.155,1.161A1.159,1.159,0,0,1,5.027,28.323Zm29-.58A1.156,1.156,0,1,1,35.183,28.9,1.16,1.16,0,0,1,34.027,27.744ZM0,27.512a1.156,1.156,0,1,1,1.156,1.161A1.159,1.159,0,0,1,0,27.512Zm6.182-2.09a2.779,2.779,0,0,1,2.773-2.786,2.747,2.747,0,0,1,1.435.412.655.655,0,0,1-.048-.238.693.693,0,1,1,.692.7.81.81,0,0,1-.088-.018,2.778,2.778,0,1,1-4.764,1.932Zm-3.235.928a.694.694,0,1,1,.692.7A.694.694,0,0,1,2.947,26.35Zm28.308-.231a.693.693,0,1,1,.692.7A.695.695,0,0,1,31.255,26.119Zm115.417-3.194a3.536,3.536,0,0,1,3.592-3.765c3.3,0,3.354,3.256,3.354,3.9V23.5h-4.952a1.937,1.937,0,0,0,2.16,1.8A5.457,5.457,0,0,0,153.1,24.8v1.438a7.282,7.282,0,0,1-2.512.451C148.411,26.689,146.672,25.5,146.672,22.926Zm1.993-.734h2.988a1.5,1.5,0,0,0-1.5-1.706A1.592,1.592,0,0,0,148.665,22.192Zm-22.8,2.27c0-1,.519-2.412,3.605-2.412.351,0,.715.014,1.068.014h.168l-.014-.311c-.056-1.211-1.389-1.254-1.628-1.254a4.538,4.538,0,0,0-2.33.648V19.64a6.736,6.736,0,0,1,2.666-.479c2.948,0,3.214,1.706,3.214,2.805v4.61h-1.866V25.5h-.029a2.3,2.3,0,0,1-2.272,1.184C126.605,26.689,125.862,25.6,125.862,24.462Zm1.937-.015c0,.522.322.943,1.163.943.787,0,1.741-.366,1.741-1.945v-.183h-.323C129.328,23.263,127.8,23.277,127.8,24.448Zm-18.692,1.819.085-1.494a5.485,5.485,0,0,0,2.047.493c.983,0,1.208-.493,1.208-.79,0-.746-.942-.873-1.7-1.2a2.007,2.007,0,0,1-1.514-1.96c0-.831.5-2.156,2.651-2.156a7.414,7.414,0,0,1,2.33.31l-.169,1.383a4.531,4.531,0,0,0-1.656-.354c-1.208,0-1.277.579-1.277.761,0,.635.7.761,1.292.959a2.328,2.328,0,0,1,1.95,2.213c0,1.159-.884,2.256-2.834,2.256A8.072,8.072,0,0,1,109.107,26.266Zm-6.37,0,.085-1.494a5.486,5.486,0,0,0,2.047.493c.984,0,1.208-.493,1.208-.79,0-.746-.94-.873-1.7-1.2a2.007,2.007,0,0,1-1.516-1.96c0-.831.506-2.156,2.652-2.156a7.4,7.4,0,0,1,2.329.31l-.168,1.383a4.532,4.532,0,0,0-1.656-.354c-1.207,0-1.278.579-1.278.761,0,.635.7.761,1.292.959a2.329,2.329,0,0,1,1.951,2.213c0,1.159-.884,2.256-2.834,2.256A8.066,8.066,0,0,1,102.737,26.266Zm-8-3.341a3.537,3.537,0,0,1,3.593-3.765c3.3,0,3.354,3.256,3.354,3.9V23.5H96.731a1.939,1.939,0,0,0,2.161,1.8,5.457,5.457,0,0,0,2.273-.508v1.438a7.292,7.292,0,0,1-2.512.451C96.479,26.689,94.738,25.5,94.738,22.926Zm1.993-.734H99.72a1.5,1.5,0,0,0-1.5-1.706A1.593,1.593,0,0,0,96.731,22.192ZM76.062,26.266l.085-1.494a5.493,5.493,0,0,0,2.048.493c.982,0,1.207-.493,1.207-.79,0-.746-.94-.873-1.7-1.2a2.005,2.005,0,0,1-1.516-1.96c0-.831.505-2.156,2.654-2.156a7.4,7.4,0,0,1,2.329.31L81,20.853a4.517,4.517,0,0,0-1.655-.354c-1.207,0-1.278.579-1.278.761,0,.635.7.761,1.292.959a2.328,2.328,0,0,1,1.95,2.213c0,1.159-.883,2.256-2.834,2.256A8.057,8.057,0,0,1,76.062,26.266ZM67.824,24V19.273h1.908v4.413c0,.478.057,1.437,1.235,1.437a1.823,1.823,0,0,0,1.712-1.986V19.273h1.908v7.3H72.751V25.435h-.044a2.711,2.711,0,0,1-2.3,1.254C69.538,26.689,67.824,26.5,67.824,24Zm75.536,2.58v-4.1c0-.676.014-1.748-1.079-1.748-.73,0-1.474.591-1.474,1.818v4.032H138.9v-4.1c0-.874-.1-1.748-1.053-1.748-.687,0-1.5.508-1.5,1.818v4.032h-1.908v-7.3h1.811v1.242h.04a2.346,2.346,0,0,1,2.232-1.355,1.857,1.857,0,0,1,1.992,1.367h.042a2.6,2.6,0,0,1,2.385-1.367c.646,0,2.33.155,2.33,2.551v4.864Zm-21.554,0-3.424-6.456-.491-1.1h-.041l.041,1.748v5.808H115.9V16.708h2.582l3.4,6.217.519,1.337h.042l-.042-1.747V16.708h1.992v9.867Zm-30.379,0V22.164c0-.706-.338-1.439-1.235-1.439a1.826,1.826,0,0,0-1.712,1.918v3.932H86.572v-7.3H88.41v1.143h.042a2.707,2.707,0,0,1,2.3-1.255,2.293,2.293,0,0,1,2.582,2.3v5.117Zm-8.616,0v-7.3H84.72v7.3Zm-23.7,0V16.708h3.229c1.907,0,3.268.773,3.268,2.439a2.169,2.169,0,0,1-1.6,2.269v.029A2.3,2.3,0,0,1,66.072,23.8c0,1.227-.716,2.778-3.859,2.778ZM61.1,25.025h1.109c1.248,0,1.752-.675,1.752-1.381s-.378-1.381-1.752-1.381H61.1Zm0-4.314h.968c1.292,0,1.531-.79,1.531-1.226,0-.282-.071-1.226-1.614-1.226H61.1ZM0,24.493a1.156,1.156,0,1,1,1.156,1.161A1.159,1.159,0,0,1,0,24.493Zm39.689.116a.694.694,0,1,1,.694.7A.695.695,0,0,1,39.689,24.609Zm-36.049,0a.694.694,0,1,1,.695.7A.7.7,0,0,1,3.64,24.609Zm27.777-2.344a2.774,2.774,0,0,1,.963-2.1,1.142,1.142,0,0,1-1.009-1.129,1.155,1.155,0,1,1,2.31,0,1.119,1.119,0,0,1-.141.524,2.811,2.811,0,0,1,.649-.084,2.786,2.786,0,1,1-2.772,2.786Zm6.307.951a.694.694,0,1,1,.694.7A.695.695,0,0,1,37.724,23.216ZM3.756,21.186a1.788,1.788,0,0,1,3.252-1.037,1.789,1.789,0,0,1,1.774-1.634,1.768,1.768,0,0,1,.963.287,1.153,1.153,0,1,1,1.059.7,1.124,1.124,0,0,1-.5-.125A1.789,1.789,0,0,1,7.321,21.35a1.786,1.786,0,0,1-3.565-.164ZM38.3,20.6a1.791,1.791,0,1,1,1.791,1.8A1.795,1.795,0,0,1,38.3,20.6Zm-36.28.813a.693.693,0,1,1,.692.7A.694.694,0,0,1,2.023,21.417ZM0,21.417a.694.694,0,1,1,.695.7A.7.7,0,0,1,0,21.417ZM36.685,18.69a1.156,1.156,0,1,1,1.155,1.161A1.159,1.159,0,0,1,36.685,18.69ZM.52,17.353a1.791,1.791,0,1,1,1.791,1.8A1.795,1.795,0,0,1,.52,17.353ZM5.6,17.3A1.155,1.155,0,1,1,6.76,18.458,1.157,1.157,0,0,1,5.6,17.3Zm77.178.891V16.216h1.966v1.973ZM30.794,17.064a.641.641,0,0,1,.031-.156,1.147,1.147,0,0,1-.61-1,1.156,1.156,0,1,1,1.9.872.692.692,0,1,1-1.319.288Zm8.2-.116a.693.693,0,1,1,.692.7A.695.695,0,0,1,39,16.948Zm.924-1.683a1.791,1.791,0,1,1,1.791,1.8A1.794,1.794,0,0,1,39.921,15.265Zm-6.586.64a1.155,1.155,0,1,1,1.155,1.159A1.158,1.158,0,0,1,33.335,15.9Zm-23.455,0a1.156,1.156,0,1,1,1.155,1.159A1.158,1.158,0,0,1,9.879,15.9Zm26.806.115a.694.694,0,1,1,.694.7A.694.694,0,0,1,36.685,16.019ZM3.178,14.743a.694.694,0,1,1,.694.7A.7.7,0,0,1,3.178,14.743Zm34.084-1.16a1.155,1.155,0,1,1,1.155,1.16A1.158,1.158,0,0,1,37.263,13.583Zm-32-.639a1.791,1.791,0,1,1,1.791,1.8A1.8,1.8,0,0,1,5.258,12.944Zm29.117-.059a1.135,1.135,0,0,1,.048-.242c-.017,0-.031.01-.048.01a.7.7,0,0,1,0-1.394.687.687,0,0,1,.669.581,1.133,1.133,0,0,1,.486-.116,1.161,1.161,0,1,1-1.155,1.16Zm-24.842.349a.694.694,0,1,1,.694.694A.694.694,0,0,1,9.533,13.235ZM28.6,11.9a1.791,1.791,0,1,1,1.791,1.8A1.794,1.794,0,0,1,28.6,11.9Zm13.75.175A1.155,1.155,0,1,1,43.5,13.235,1.158,1.158,0,0,1,42.347,12.073ZM11.728,12.3a.694.694,0,1,1,.694.7A.695.695,0,0,1,11.728,12.3Zm-9.59-.115a.693.693,0,1,1,.694.7A.7.7,0,0,1,2.138,12.19ZM37.61,10.564a.694.694,0,1,1,.694.7A.695.695,0,0,1,37.61,10.564Zm-29-.811a1.156,1.156,0,1,1,1.155,1.161A1.159,1.159,0,0,1,8.608,9.752Zm31.427.348a.693.693,0,1,1,.694.7A.7.7,0,0,1,40.036,10.1ZM12.363,9.518a1.156,1.156,0,1,1,1.156,1.162A1.16,1.16,0,0,1,12.363,9.518Zm14.674-.463a1.155,1.155,0,1,1,1.155,1.161A1.159,1.159,0,0,1,27.038,9.055Zm15.309-.523A1.155,1.155,0,1,1,43.5,9.694,1.158,1.158,0,0,1,42.347,8.532ZM5.027,7.893A1.155,1.155,0,1,1,6.182,9.055,1.157,1.157,0,0,1,5.027,7.893Zm20.8.176a.694.694,0,1,1,.694.7A.7.7,0,0,1,25.824,8.069ZM35.993,6.675a1.79,1.79,0,1,1,1.79,1.8A1.794,1.794,0,0,1,35.993,6.675Zm4.39.7a.694.694,0,1,1,.694.7A.695.695,0,0,1,40.382,7.372ZM10.11,6.095A1.8,1.8,0,0,1,10.5,4.982a.459.459,0,0,1-.045.011.7.7,0,1,1,.692-.7.707.707,0,0,1-.038.191A1.769,1.769,0,0,1,11.9,4.3a1.8,1.8,0,1,1-1.791,1.8Zm20.1.87a.694.694,0,1,1,.694.7A.7.7,0,0,1,30.215,6.965Zm14.327-.29a.694.694,0,1,1,.695.7A.7.7,0,0,1,44.541,6.675Zm-22.531-1.1a1.8,1.8,0,0,1,.564-1.3.688.688,0,0,1-.564-.669.694.694,0,1,1,1.34.238,1.757,1.757,0,0,1,.451-.065,1.8,1.8,0,1,1-1.791,1.8Zm-7.336,1.1a.693.693,0,1,1,.694.7A.7.7,0,0,1,14.675,6.675Zm-6.76,0a.694.694,0,1,1,.694.7A.695.695,0,0,1,7.915,6.675Zm19.412-.523a.692.692,0,1,1,.692.7A.694.694,0,0,1,27.327,6.152ZM16.813,4.818a1.791,1.791,0,1,1,1.79,1.8A1.795,1.795,0,0,1,16.813,4.818Zm23.339.058a.694.694,0,1,1,.694.7A.694.694,0,0,1,40.152,4.875ZM42.115,4.3a1.156,1.156,0,1,1,1.156,1.16A1.16,1.16,0,0,1,42.115,4.3ZM26.056,3.6a1.156,1.156,0,1,1,1.155,1.159A1.159,1.159,0,0,1,26.056,3.6Zm-2.2-1.278a.693.693,0,1,1,.692.7A.694.694,0,0,1,23.86,2.322ZM13.519,1.858a1.155,1.155,0,1,1,1.155,1.16A1.158,1.158,0,0,1,13.519,1.858ZM45.7,2.09a.693.693,0,1,1,.692.7A.7.7,0,0,1,45.7,2.09Zm-8.2,0a.694.694,0,1,1,.694.7A.7.7,0,0,1,37.494,2.09Zm3.352-.116a.693.693,0,1,1,.694.7A.694.694,0,0,1,40.845,1.974ZM16.927,1.742a.694.694,0,1,1,.694.7A.694.694,0,0,1,16.927,1.742ZM20.163.7a.693.693,0,1,1,.692.7A.695.695,0,0,1,20.163.7Z"/>
</svg>
