<svg xmlns="http://www.w3.org/2000/svg" width="153.625" height="43.615" viewBox="0 0 153.625 43.615">
  <path id="Shape_25" data-name="Shape 25" d="M0,21.807A21.67,21.67,0,0,1,21.531,0,21.67,21.67,0,0,1,43.061,21.807,21.671,21.671,0,0,1,21.531,43.615,21.669,21.669,0,0,1,0,21.807Zm2.268-.659A18.309,18.309,0,0,0,20.459,39.572,18.457,18.457,0,0,0,27.98,4.384a15.187,15.187,0,0,1,6.239,14.455,11.653,11.653,0,0,1-4.672,9.019A14.745,14.745,0,0,1,14.006,30.8,15.157,15.157,0,0,1,5.6,11.227a15.351,15.351,0,0,1,.918-1.91A18.5,18.5,0,0,0,2.268,21.147Zm5.781-7.92A12.914,12.914,0,0,0,15.21,29.906,12.488,12.488,0,0,0,24,30.09a11.489,11.489,0,0,1-9.8-3.569A11.865,11.865,0,0,1,14.629,9.9,11.492,11.492,0,0,1,27.85,7.943a12.646,12.646,0,0,0-7.985-2.865A12.705,12.705,0,0,0,8.049,13.228Zm15.266,1.8a7.059,7.059,0,0,1,3.914,9.115A6.985,6.985,0,0,1,24.786,27.3a9,9,0,0,0,3.324-2.026,9.277,9.277,0,0,0,.336-13,8.994,8.994,0,0,0-12.832-.34,9.279,9.279,0,0,0-1.576,11.316,7.077,7.077,0,0,1,.277-4.258,6.943,6.943,0,0,1,6.459-4.454A6.84,6.84,0,0,1,23.315,15.03Zm69.706,17.8a2.039,2.039,0,0,0,.681-.386,2.46,2.46,0,0,0,.653-.878.559.559,0,0,0,.062-.188.545.545,0,0,0-.062-.2l-1.572-3.993h.848l.929,2.561c.106.284.212.626.282.885h.017c.079-.259.168-.589.274-.9l.848-2.543H96.8l-1.166,3.089a6.7,6.7,0,0,1-1.467,2.713,2.179,2.179,0,0,1-.955.5Zm16.863.2.2-.608a2.3,2.3,0,0,0,1.255.349c.8,0,1.38-.42,1.38-1.524v-.473H112.7a1.513,1.513,0,0,1-1.362.724,1.928,1.928,0,0,1-1.82-2.113,2.061,2.061,0,0,1,1.935-2.29,1.427,1.427,0,0,1,1.336.74h.017l.026-.652h.689c-.026.3-.036.664-.036,1.183v2.515a2.572,2.572,0,0,1-.608,1.988,2.339,2.339,0,0,1-1.566.517A2.758,2.758,0,0,1,109.884,33.032Zm.416-3.691c0,.853.434,1.559,1.265,1.559a1.124,1.124,0,0,0,1.079-.806,1.4,1.4,0,0,0,.061-.42v-.78a1.039,1.039,0,0,0-.044-.349,1.115,1.115,0,0,0-1.088-.843C110.831,27.7,110.3,28.341,110.3,29.341ZM79.269,33.29V28.6c0-.555-.02-1-.037-1.415h.689l.044.744h.018A1.659,1.659,0,0,1,81.5,27.1a1.95,1.95,0,0,1,1.82,2.192c0,1.559-.945,2.328-1.952,2.328a1.5,1.5,0,0,1-1.318-.679h-.017V33.29Zm.819-4.6a1.3,1.3,0,0,0-.052.313v.752a1.258,1.258,0,0,0,.034.323A1.206,1.206,0,0,0,81.239,31c.822,0,1.3-.679,1.3-1.674,0-.861-.45-1.6-1.272-1.6A1.23,1.23,0,0,0,80.089,28.69Zm57.541.734a2.084,2.084,0,0,1,2.006-2.326,1.814,1.814,0,0,1,1.766,2.031,1.893,1.893,0,0,1-.026.367h-3a1.375,1.375,0,0,0,1.468,1.5,2.753,2.753,0,0,0,1.184-.224l.141.564a3.46,3.46,0,0,1-1.431.278A2.007,2.007,0,0,1,137.63,29.424Zm.751-.491h2.273a1.117,1.117,0,0,0-1.079-1.273A1.284,1.284,0,0,0,138.38,28.932Zm-7.98.491a2.084,2.084,0,0,1,2.006-2.326,1.814,1.814,0,0,1,1.766,2.031,1.979,1.979,0,0,1-.027.367H131.14a1.376,1.376,0,0,0,1.469,1.5,2.758,2.758,0,0,0,1.184-.224l.14.564a3.452,3.452,0,0,1-1.431.278A2.006,2.006,0,0,1,130.4,29.424Zm.749-.491h2.273a1.115,1.115,0,0,0-1.079-1.273A1.285,1.285,0,0,0,131.149,28.932Zm-16.721,1.44c0-1.048.918-1.62,2.572-1.612V28.67a.882.882,0,0,0-.973-.992,2.035,2.035,0,0,0-1.121.321l-.177-.527a2.743,2.743,0,0,1,1.414-.375c1.307,0,1.625.9,1.625,1.763v1.619a7.4,7.4,0,0,0,.062,1.037h-.7l-.062-.545h-.027a1.586,1.586,0,0,1-1.308.645A1.226,1.226,0,0,1,114.428,30.373Zm.776-.089a.688.688,0,0,0,.726.753,1.081,1.081,0,0,0,1.052-.726.962.962,0,0,0,.036-.252v-.751l-.129,0C116.075,29.306,115.2,29.483,115.2,30.283Zm-10.542-.9a2.1,2.1,0,0,1,2.12-2.29,2.034,2.034,0,0,1,2.058,2.218,2.108,2.108,0,0,1-2.129,2.3A2.052,2.052,0,0,1,104.662,29.387Zm.794-.025c0,.949.53,1.665,1.291,1.665.743,0,1.3-.707,1.3-1.685,0-.732-.363-1.656-1.282-1.656S105.456,28.546,105.456,29.362Zm-6.362,1.95.185-.59a2.171,2.171,0,0,0,1.033.305c.557,0,.823-.278.823-.645s-.221-.573-.787-.788c-.778-.286-1.14-.708-1.14-1.226a1.33,1.33,0,0,1,1.476-1.271,1.951,1.951,0,0,1,1.042.268l-.186.572a1.634,1.634,0,0,0-.875-.259c-.459,0-.707.267-.707.591,0,.357.248.519.806.742.733.279,1.121.654,1.121,1.3,0,.769-.592,1.306-1.591,1.306A2.407,2.407,0,0,1,99.094,31.311Zm-15.133-.939c0-1.048.918-1.62,2.572-1.612V28.67a.882.882,0,0,0-.973-.992A2.035,2.035,0,0,0,84.439,28l-.177-.527a2.742,2.742,0,0,1,1.414-.375c1.307,0,1.625.9,1.625,1.763v1.619a7.421,7.421,0,0,0,.062,1.037h-.7l-.062-.545h-.026a1.589,1.589,0,0,1-1.31.645A1.226,1.226,0,0,1,83.961,30.373Zm.777-.089a.687.687,0,0,0,.724.753,1.082,1.082,0,0,0,1.054-.726.919.919,0,0,0,.036-.252v-.751l-.129,0C85.608,29.306,84.738,29.483,84.738,30.283Zm-18-.9a2.1,2.1,0,0,1,2.121-2.29,2.036,2.036,0,0,1,2.059,2.218,2.109,2.109,0,0,1-2.13,2.3A2.053,2.053,0,0,1,66.734,29.387Zm.794-.025c0,.949.53,1.665,1.291,1.665.742,0,1.3-.707,1.3-1.685,0-.732-.363-1.656-1.282-1.656S67.529,28.546,67.529,29.362Zm-4.7.043a2.192,2.192,0,0,1,2.3-2.308,2.419,2.419,0,0,1,1.078.232l-.177.6a1.871,1.871,0,0,0-.9-.207,1.5,1.5,0,0,0-1.512,1.639A1.477,1.477,0,0,0,65.1,30.981a2.18,2.18,0,0,0,.955-.206l.133.589a2.95,2.95,0,0,1-1.229.253A2.046,2.046,0,0,1,62.828,29.4Zm72.309,2.112V28.538c0-.51-.009-.948-.036-1.353h.681l.035.861h.026a1.3,1.3,0,0,1,1.194-.949,1.5,1.5,0,0,1,.212.017v.743a1.1,1.1,0,0,0-1.308.984,2.442,2.442,0,0,0-.026.367v2.309Zm-6.47,0V29.029c0-.7-.256-1.28-.989-1.28a1.131,1.131,0,0,0-1.044.779,1.006,1.006,0,0,0-.053.376v2.613H125.8V25.163h.777v2.711h.018a1.471,1.471,0,0,1,.555-.564,1.586,1.586,0,0,1,.8-.213c.576,0,1.493.356,1.493,1.842v2.577Zm-6.779,0v-2.5c0-.7-.256-1.278-.99-1.278a1.127,1.127,0,0,0-1.045.8,1.173,1.173,0,0,0-.053.368v2.6h-.776V28.358c0-.455-.008-.813-.036-1.173h.689l.044.715h.017a1.584,1.584,0,0,1,1.415-.8c.593,0,1.512.356,1.512,1.842v2.577Zm-19,0V25.163h.776v6.354Zm-11.464,0v-2.5c0-.7-.257-1.278-.992-1.278a1.124,1.124,0,0,0-1.042.8,1.142,1.142,0,0,0-.053.368v2.6h-.777V28.358c0-.455-.009-.813-.036-1.173h.689l.045.715h.017a1.581,1.581,0,0,1,1.415-.8c.592,0,1.51.356,1.51,1.842v2.577Zm-14.169,0V29.075c0-.841-.309-1.334-.927-1.334a1.024,1.024,0,0,0-.93.706,1.357,1.357,0,0,0-.062.394v2.675h-.759V28.923c0-.69-.3-1.183-.893-1.183a1.073,1.073,0,0,0-.964.787,1.052,1.052,0,0,0-.062.385v2.6H71.9V28.358c0-.455-.017-.813-.036-1.173h.681l.036.707H72.6a1.476,1.476,0,0,1,1.353-.795,1.262,1.262,0,0,1,1.2.866h.017a1.7,1.7,0,0,1,.485-.563,1.43,1.43,0,0,1,.939-.3c.573,0,1.413.375,1.413,1.879v2.54Zm68.26-8.941.16-1.626a2.32,2.32,0,0,0,.844.176,1.375,1.375,0,0,0,1.494-.935l.19-.482-3.244-8.814h2.385l1.542,4.608.461,1.594h.08l.508-1.659,1.5-4.544h2.194l-3.484,9.362c-.492,1.337-1.049,2.544-3.371,2.544A3.7,3.7,0,0,1,145.512,22.576Zm-94.368,0,.16-1.626a2.318,2.318,0,0,0,.842.176,1.376,1.376,0,0,0,1.5-.935l.192-.483-3.246-8.813h2.386L54.517,15.5l.461,1.594h.08l.508-1.657,1.5-4.546h2.194l-3.482,9.36C55.28,21.593,54.724,22.8,52.4,22.8A3.7,3.7,0,0,1,51.145,22.576Zm66.152.114V10.895h1.893v1.451h.032a3.047,3.047,0,0,1,2.689-1.579c1.875,0,3.467,1.207,3.467,4.3,0,3.078-1.766,4.3-3.565,4.3a2.655,2.655,0,0,1-2.369-1.256h-.032l.048,1.369V22.69Zm2.163-7.622c0,1.773.955,2.562,1.83,2.562s1.828-.788,1.828-2.562-.955-2.56-1.828-2.56S119.46,13.3,119.46,15.068ZM69.945,16.293v-5.4h2.163v5.043c0,.549.063,1.644,1.4,1.644a2.079,2.079,0,0,0,1.94-2.271V10.895h2.163v8.347H75.529V17.936H75.48a3.062,3.062,0,0,1-2.608,1.436C71.886,19.371,69.945,19.161,69.945,16.293ZM59.861,15.068a4.248,4.248,0,1,1,8.495,0,4.248,4.248,0,1,1-8.495,0Zm2.259,0c0,1.934,1.035,2.724,1.989,2.724S66.1,17,66.1,15.068s-1.033-2.722-1.988-2.722S62.119,13.136,62.119,15.068Zm64.371,1.756c0-1.143.588-2.754,4.086-2.754.4,0,.813.018,1.21.018h.192l-.017-.357c-.063-1.385-1.575-1.433-1.844-1.433a5.12,5.12,0,0,0-2.641.74V11.315a7.585,7.585,0,0,1,3.022-.548c3.34,0,3.642,1.95,3.642,3.206v5.269h-2.115V18.018h-.031a2.6,2.6,0,0,1-2.577,1.351C127.333,19.369,126.491,18.13,126.491,16.823Zm2.193-.014c0,.6.366,1.079,1.32,1.079.891,0,1.974-.418,1.974-2.224v-.208h-.367C130.418,15.456,128.684,15.471,128.684,16.809ZM92.865,15.068a4.247,4.247,0,1,1,8.493,0,4.247,4.247,0,1,1-8.493,0Zm2.259,0c0,1.934,1.033,2.725,1.989,2.725S99.1,17,99.1,15.068s-1.033-2.722-1.987-2.722S95.124,13.134,95.124,15.068Zm-9.623-.08a4.128,4.128,0,0,1,4.453-4.22,7.547,7.547,0,0,1,1.828.226l-.126,1.578a3.5,3.5,0,0,0-1.336-.225A2.552,2.552,0,0,0,87.76,15.1a2.441,2.441,0,0,0,2.417,2.692,4.312,4.312,0,0,0,1.654-.339l.08,1.593a7.066,7.066,0,0,1-2.115.322A4.117,4.117,0,0,1,85.5,14.987Zm56.21,4.255V14.2c0-.8-.382-1.643-1.4-1.643a2.081,2.081,0,0,0-1.941,2.19v4.5h-2.164V10.895h2.083V12.2h.048a3.066,3.066,0,0,1,2.609-1.434c1.7,0,2.925.951,2.925,2.628v5.846Zm-28.646,0v-4.69c0-.772.017-2-1.225-2-.826,0-1.669.677-1.669,2.078v4.608h-2.163v-4.69c0-1-.111-2-1.192-2-.781,0-1.7.579-1.7,2.078v4.608h-2.163V10.895H105v1.42h.047a2.653,2.653,0,0,1,2.53-1.548,2.108,2.108,0,0,1,2.258,1.563h.048a2.947,2.947,0,0,1,2.7-1.563c.732,0,2.641.177,2.641,2.916v5.559Zm-33.385,0V10.895h1.972V12.7H81.7a2.224,2.224,0,0,1,2.212-1.934,3.836,3.836,0,0,1,.716.1l-.08,1.6c-.159-.018-.476-.048-.7-.048-.779,0-2,.482-2,2.819v4.011Z"/>
</svg>
