<svg id="Group_10163" data-name="Group 10163" xmlns="http://www.w3.org/2000/svg" width="31.313" height="32.323" viewBox="0 0 31.313 32.323">
  <path id="Path_35025" data-name="Path 35025" d="M0,0H25.189V25.189H0Z" fill="none"/>
  <path id="Path_35026" data-name="Path 35026" d="M16.186,25.133a10.324,10.324,0,1,0-2.579,0V17.476H11.027V14.9h2.579V12.763a5.632,5.632,0,0,1,.516-2.98,3.516,3.516,0,0,1,1.465-1.464,5.111,5.111,0,0,1,2.176-.491,8.328,8.328,0,0,1,1.648.1v2.45h-.646a4.677,4.677,0,0,0-1.963.211.938.938,0,0,0-.4.4c-.155.291-.211.58-.211,1.764V14.9H19.41l-.645,2.579H16.186ZM14.9,27.793a12.9,12.9,0,1,1,12.9-12.9A12.9,12.9,0,0,1,14.9,27.793Z" transform="translate(3.52 4.531)"/>
</svg>
