<svg xmlns="http://www.w3.org/2000/svg" xmlns:xlink="http://www.w3.org/1999/xlink" width="81.379" height="71.417" viewBox="0 0 81.379 71.417">
  <defs>
    <clipPath id="clip-path">
      <rect id="Rectangle_3584" data-name="Rectangle 3584" width="81.379" height="71.417" fill="none"/>
    </clipPath>
  </defs>
  <g id="Group_21728" data-name="Group 21728" transform="translate(-1265.354 -353.151)">
    <g id="Group_21727" data-name="Group 21727" transform="translate(1265.354 353.152)" clip-path="url(#clip-path)">
      <path id="Path_35306" data-name="Path 35306" d="M1417.435,362.219a4.534,4.534,0,1,1,4.534-4.534,4.539,4.539,0,0,1-4.534,4.534m0-8.432a3.9,3.9,0,1,0,3.9,3.9,3.9,3.9,0,0,0-3.9-3.9" transform="translate(-1340.59 -353.151)"/>
      <path id="Path_35307" data-name="Path 35307" d="M1418.39,358.13h1.846c1.207,0,2.077.416,2.077,1.248a1.215,1.215,0,0,1-.968,1.132l1.092,1.664h-1.376l-.914-1.415h-.435v1.415h-1.323Zm1.731,1.97c.5,0,.879-.214.879-.612,0-.427-.373-.607-.887-.607h-.4V360.1Z" transform="translate(-1343.389 -355.69)"/>
      <path id="Path_35308" data-name="Path 35308" d="M1344.792,373.864l-18.582-18.6v.006a7.026,7.026,0,0,0-5.028-2.118h-17.145a7.059,7.059,0,0,0-6.7,4.866l-2.759-2.751a7.041,7.041,0,0,0-5.032-2.115h-5.131v0h0l-.053,2.791a5.667,5.667,0,0,1-.06.7,5.537,5.537,0,0,1-3.05,4.133,5.408,5.408,0,0,1-2.368.548l-2.615-.053v0h0l-.375,2.468a11.644,11.644,0,0,1-8.443,9.5l-1.99.544-.106.029v25.2a6.976,6.976,0,0,0,1.941,4.845l18.581,18.595a7.044,7.044,0,0,0,5.032,2.113l48.78-.006a7.055,7.055,0,0,0,7.046-7.046V378.708a6.981,6.981,0,0,0-1.94-4.845" transform="translate(-1265.354 -353.151)"/>
      <path id="Path_35309" data-name="Path 35309" d="M1302.794,363.16v13.323a3.041,3.041,0,1,1-6.082,0V363.159a4.2,4.2,0,0,0-4.2-4.2h-2.34a8.2,8.2,0,0,1-.087,1.064,8.339,8.339,0,0,1-8.41,7.106,14.494,14.494,0,0,1-10.511,11.823v23.023a4.2,4.2,0,0,0,4.2,4.2h17.146a4.2,4.2,0,0,0,4.2-4.2V388.648a3.041,3.041,0,1,1,6.082,0v13.323a4.2,4.2,0,0,0,4.2,4.2h17.145a4.2,4.2,0,0,0,4.2-4.2V363.16a4.2,4.2,0,0,0-4.2-4.2H1307a4.2,4.2,0,0,0-4.2,4.2" transform="translate(-1268.314 -356.111)" fill="#fff"/>
    </g>
  </g>
</svg>
