<svg id="Group_10164" data-name="Group 10164" xmlns="http://www.w3.org/2000/svg" width="27" height="27" viewBox="0 0 27 27">
  <path id="Path_35027" data-name="Path 35027" d="M0,0H27V27H0Z" fill="none"/>
  <path id="Path_35028" data-name="Path 35028" d="M13.5,10.05a3.45,3.45,0,1,0,3.45,3.45A3.45,3.45,0,0,0,13.5,10.05Zm0-2.3A5.75,5.75,0,1,1,7.75,13.5,5.75,5.75,0,0,1,13.5,7.75Zm7.475-.288a1.438,1.438,0,1,1-1.437-1.437A1.438,1.438,0,0,1,20.975,7.462ZM13.5,4.3c-2.845,0-3.31.008-4.633.067A6.247,6.247,0,0,0,6.8,4.748a3.319,3.319,0,0,0-1.242.808A3.324,3.324,0,0,0,4.747,6.8a6.239,6.239,0,0,0-.381,2.068C4.307,10.136,4.3,10.58,4.3,13.5c0,2.845.008,3.31.067,4.633A6.273,6.273,0,0,0,4.747,20.2,3.576,3.576,0,0,0,6.8,22.25a6.26,6.26,0,0,0,2.07.383c1.27.06,1.714.067,4.633.067,2.845,0,3.31-.008,4.633-.067a6.285,6.285,0,0,0,2.067-.381,3.359,3.359,0,0,0,1.242-.807,3.325,3.325,0,0,0,.81-1.242,6.287,6.287,0,0,0,.382-2.07c.06-1.27.067-1.714.067-4.633,0-2.845-.008-3.31-.067-4.633A6.259,6.259,0,0,0,22.252,6.8a3.348,3.348,0,0,0-.808-1.242,3.317,3.317,0,0,0-1.242-.81,6.245,6.245,0,0,0-2.068-.381C16.864,4.307,16.42,4.3,13.5,4.3Zm0-2.3c3.125,0,3.514.012,4.74.069a8.472,8.472,0,0,1,2.792.535A5.607,5.607,0,0,1,23.07,3.93,5.644,5.644,0,0,1,24.4,5.967a8.5,8.5,0,0,1,.535,2.792c.054,1.226.069,1.616.069,4.74s-.011,3.514-.069,4.74a8.5,8.5,0,0,1-.535,2.792A5.871,5.871,0,0,1,21.032,24.4a8.5,8.5,0,0,1-2.792.535c-1.226.054-1.616.069-4.74.069s-3.514-.011-4.74-.069A8.5,8.5,0,0,1,5.967,24.4,5.871,5.871,0,0,1,2.6,21.032a8.466,8.466,0,0,1-.535-2.792C2.015,17.014,2,16.625,2,13.5s.012-3.514.069-4.74A8.466,8.466,0,0,1,2.6,5.967,5.612,5.612,0,0,1,3.93,3.93,5.632,5.632,0,0,1,5.967,2.6,8.466,8.466,0,0,1,8.76,2.069C9.986,2.015,10.375,2,13.5,2Z" transform="translate(0 0)" fill="#fff"/>
</svg>
