<svg xmlns="http://www.w3.org/2000/svg" width="16.958" height="16.918" viewBox="0 0 16.958 16.918">
  <path id="Shape_315" data-name="Shape 315" d="M671.482,3647.9l-.023,0a4.917,4.917,0,0,0-4.981,2.111,4.915,4.915,0,0,0-4.977-2.114l-.022.007a4.715,4.715,0,0,0-3.319,5.77l.135.5c.019.07.039.141.06.211.011.036.023.072.034.108s.021.067.032.1c.017.052.036.1.054.155.006.017.012.034.018.05.024.068.05.134.076.2,0,0,0,0,0,0a22.521,22.521,0,0,0,4.033,5.779,45.5,45.5,0,0,0,3.875,3.9h0a45.55,45.55,0,0,0,3.875-3.9c1.815-2.119,3.693-4.31,4.308-6.608l.135-.5A4.714,4.714,0,0,0,671.482,3647.9Z" transform="translate(-657.999 -3647.767)" fill="#ff0045"/>
</svg>
