<svg id="Group_10173" data-name="Group 10173" xmlns="http://www.w3.org/2000/svg" width="28" height="28" viewBox="0 0 28 28">
  <path id="Path_35031" data-name="Path 35031" d="M0,0H28V28H0Z" fill="none"/>
  <path id="Path_35032" data-name="Path 35032" d="M17.618,5.884a3.383,3.383,0,0,0-3.383,3.322L14.2,11.043a.7.7,0,0,1-.793.68l-1.821-.247A13.659,13.659,0,0,1,4.692,8.21c-.7,3.862.665,6.537,3.947,8.6l2.038,1.281a.7.7,0,0,1,.04,1.159L8.859,20.607a12.089,12.089,0,0,0,3.024-.153c5.5-1.1,9.164-5.241,9.164-12.073a3.524,3.524,0,0,0-3.43-2.5ZM11.9,9.162a5.717,5.717,0,0,1,9.783-3.914A4.5,4.5,0,0,0,24.8,4.5a8.432,8.432,0,0,1-1.416,3.886c0,8.916-5.48,13.251-11.04,14.36-3.813.761-9.357-.489-10.946-2.148.81-.063,4.1-.417,6-1.808-1.609-1.061-8.013-4.829-3.8-14.96A16.387,16.387,0,0,0,9.6,8.535a6.857,6.857,0,0,0,2.3.628Z" transform="translate(0.233 0.591)" fill="#fff"/>
</svg>
