<svg xmlns="http://www.w3.org/2000/svg" width="17.489" height="17.777" viewBox="0 0 17.489 17.777">
  <path id="Path_4" data-name="Path 4" d="M3.471,5.654.757,2.941,1.941,1.757,4.654,4.471H17.409a.837.837,0,0,1,.8,1.077L16.2,12.243a.837.837,0,0,1-.8.6H5.145v1.674H14.35v1.674H4.308a.837.837,0,0,1-.837-.837Zm1.255,13.88a1.255,1.255,0,1,1,1.255-1.255A1.255,1.255,0,0,1,4.726,19.534Zm10.042,0a1.255,1.255,0,1,1,1.255-1.255A1.255,1.255,0,0,1,14.768,19.534Z" transform="translate(-0.757 -1.757)"/>
</svg>
