<svg xmlns="http://www.w3.org/2000/svg" width="2190.212" height="1000.288" viewBox="0 0 2190.212 1000.288">
  <g id="Group_21675" data-name="Group 21675" transform="translate(-310 -1650.32)">
    <path id="Path_35224" data-name="Path 35224" d="M0,0H1409.212V619.813H0Z" transform="translate(693 2030.795)" fill="none"/>
    <g id="Group_21631" data-name="Group 21631" transform="translate(0 -501.793)">
      <rect id="Rectangle_3453" data-name="Rectangle 3453" width="1300" height="360" transform="translate(310 2349)"/>
      <path id="Path_35172" data-name="Path 35172" d="M1664.6,633.655a101.758,101.758,0,1,0-101.758,101.758A101.758,101.758,0,0,0,1664.6,633.655" transform="translate(-275.395 1896.094)" fill="#0049c4"/>
      <path id="Path_35173" data-name="Path 35173" d="M1488.191,648.185a11.275,11.275,0,0,0-3.612,4.164c-3.217,6.166-3.256,15.319-3.256,15.319s6.046-4.044,11.962-2.872c-1.446,1.754-1.16,4.119-.381,6.445.426-1.247,1.877-1.827,3.065-2.09,4.086-.907,9.268-1.568,10.588-6.153a10.55,10.55,0,0,0-.7-6.651c-1.8-4.423-5.586-8.795-9.943-9.565a10.108,10.108,0,0,0-7.719,1.4" transform="translate(-275.395 1896.094)" fill="#efd521"/>
      <text id="_" data-name=" " transform="translate(1352.25 2521.85) rotate(85.533)" fill="#fff" font-size="19.769" font-family="RobotoCondensed-Bold, Roboto" font-weight="700"><tspan x="0" y="0"> </tspan></text>
      <text id="I" transform="matrix(-0.01, 1, -1, -0.01, 1352.701, 2526.566)" fill="#fff" font-size="19.769" font-family="RobotoCondensed-Bold, Roboto" font-weight="700"><tspan x="0" y="0">I</tspan></text>
      <text id="t" transform="matrix(-0.133, 0.991, -0.991, -0.133, 1352.789, 2532.855)" fill="#fff" font-size="19.769" font-family="RobotoCondensed-Bold, Roboto" font-weight="700"><tspan x="0" y="0">t</tspan></text>
      <text id="_2" data-name=" " transform="translate(1351.406 2542.842) rotate(104.023)" fill="#fff" font-size="19.769" font-family="RobotoCondensed-Bold, Roboto" font-weight="700"><tspan x="0" y="0"> </tspan></text>
      <text id="l" transform="matrix(-0.32, 0.947, -0.947, -0.32, 1350.281, 2547.479)" fill="#fff" font-size="19.769" font-family="RobotoCondensed-Bold, Roboto" font-weight="700"><tspan x="0" y="0">l</tspan></text>
      <text id="o" transform="translate(1348.877 2552.684) rotate(116.723)" fill="#fff" font-size="19.769" font-family="RobotoCondensed-Bold, Roboto" font-weight="700"><tspan x="0" y="0">o</tspan></text>
      <text id="o-2" data-name="o" transform="matrix(-0.614, 0.789, -0.789, -0.614, 1343.355, 2564.104)" fill="#fff" font-size="19.769" font-family="RobotoCondensed-Bold, Roboto" font-weight="700"><tspan x="0" y="0">o</tspan></text>
      <text id="k" transform="translate(1335.704 2574.211) rotate(139.027)" fill="#fff" font-size="19.769" font-family="RobotoCondensed-Bold, Roboto" font-weight="700"><tspan x="0" y="0">k</tspan></text>
      <text id="s" transform="translate(1325.998 2582.756) rotate(149.646)" fill="#fff" font-size="19.769" font-family="RobotoCondensed-Bold, Roboto" font-weight="700"><tspan x="0" y="0">s</tspan></text>
      <text id="_3" data-name=" " transform="matrix(-0.919, 0.394, -0.394, -0.919, 1315.616, 2588.561)" fill="#fff" font-size="19.769" font-family="RobotoCondensed-Bold, Roboto" font-weight="700"><tspan x="0" y="0"> </tspan></text>
      <text id="s-2" data-name="s" transform="matrix(-0.961, 0.276, -0.276, -0.961, 1311.623, 2590.75)" fill="#fff" font-size="19.769" font-family="RobotoCondensed-Bold, Roboto" font-weight="700"><tspan x="0" y="0">s</tspan></text>
      <text id="o-3" data-name="o" transform="matrix(-0.996, 0.094, -0.094, -0.996, 1300.641, 2594.127)" fill="#fff" font-size="19.769" font-family="RobotoCondensed-Bold, Roboto" font-weight="700"><tspan x="0" y="0">o</tspan></text>
      <text id="_4" data-name=" " transform="translate(1287.611 2595.117) rotate(-177.659)" fill="#fff" font-size="19.769" font-family="RobotoCondensed-Bold, Roboto" font-weight="700"><tspan x="0" y="0"> </tspan></text>
      <text id="b" transform="matrix(-0.984, -0.176, 0.176, -0.984, 1283.222, 2595.285)" fill="#fff" font-size="19.769" font-family="RobotoCondensed-Bold, Roboto" font-weight="700"><tspan x="0" y="0">b</tspan></text>
      <text id="o-4" data-name="o" transform="translate(1270.361 2593.189) rotate(-158.863)" fill="#fff" font-size="19.769" font-family="RobotoCondensed-Bold, Roboto" font-weight="700"><tspan x="0" y="0">o</tspan></text>
      <text id="m" transform="translate(1258.68 2589.15) rotate(-145.35)" fill="#fff" font-size="19.769" font-family="RobotoCondensed-Bold, Roboto" font-weight="700"><tspan x="0" y="0">m</tspan></text>
      <text id="b-2" data-name="b" transform="translate(1243.643 2578.748) rotate(-131.745)" fill="#fff" font-size="19.769" font-family="RobotoCondensed-Bold, Roboto" font-weight="700"><tspan x="0" y="0">b</tspan></text>
      <path id="Path_35174" data-name="Path 35174" d="M1596.911,614.706l3.1-3.1c1.177-1.177,2.285-3.835-2.061-9.005a4.837,4.837,0,0,1,.619-.124,6.408,6.408,0,0,1,4.589,1.366,17.881,17.881,0,0,1,3.945,5.259c.234.4.467.8.7,1.2,1.6,2.667,3.905,5.888,7.608,7.127a9.666,9.666,0,0,0,8.42-1.148l-2.751-4.077a4.784,4.784,0,0,1-4.109.559c-2.173-.727-3.786-3.048-4.948-4.988-.227-.38-.45-.765-.675-1.15a21.744,21.744,0,0,0-5.173-6.662,11.253,11.253,0,0,0-8.219-2.366,9.912,9.912,0,0,0-3.717,1.247c-5.4-4.691-8.145-3.555-9.349-2.353l-3.1,3.1a38.987,38.987,0,1,0,15.116,15.115m-9.019-14.254c2.226.768,7.391,5.932,8.158,8.158l-1.859,1.86a38.888,38.888,0,0,0-8.159-8.158Zm-49.135,57.293a34.068,34.068,0,1,1,48.179,0,34.108,34.108,0,0,1-48.179,0" transform="translate(-275.395 1896.094)" fill="#ff0045"/>
      <path id="Path_35175" data-name="Path 35175" d="M1542.909,613.718l3.479,3.479a23.3,23.3,0,0,1,22.95-5.9l1.369-4.725a28.222,28.222,0,0,0-27.8,7.146" transform="translate(-275.395 1896.094)" fill="#fff"/>
      <path id="Path_35176" data-name="Path 35176" d="M1621.084,612.2l15.676-14.089-3.721,9.319,20.165-4.758-14.367,9.4,7.05,6.482-22.052-2.27Z" transform="translate(-275.395 1896.094)" fill="#efd521"/>
      <text id="_5" data-name=" " transform="translate(1222.602 2537.535) rotate(-94.464)" fill="#fff" font-size="19.769" font-family="RobotoCondensed-Bold, Roboto" font-weight="700"><tspan x="0" y="0"> </tspan></text>
      <text id="I-2" data-name="I" transform="translate(1221.977 2532.768) rotate(-89.448)" fill="#fff" font-size="19.769" font-family="RobotoCondensed-Bold, Roboto" font-weight="700"><tspan x="0" y="0">I</tspan></text>
      <text id="t-2" data-name="t" transform="translate(1221.949 2526.527) rotate(-82.355)" fill="#fff" font-size="19.769" font-family="RobotoCondensed-Bold, Roboto" font-weight="700"><tspan x="0" y="0">t</tspan></text>
      <text id="_6" data-name=" " transform="translate(1223.384 2516.6) rotate(-75.975)" fill="#fff" font-size="19.769" font-family="RobotoCondensed-Bold, Roboto" font-weight="700"><tspan x="0" y="0"> </tspan></text>
      <text id="l-2" data-name="l" transform="translate(1224.512 2511.914) rotate(-71.35)" fill="#fff" font-size="19.769" font-family="RobotoCondensed-Bold, Roboto" font-weight="700"><tspan x="0" y="0">l</tspan></text>
      <text id="o-5" data-name="o" transform="translate(1225.941 2506.594) rotate(-63.277)" fill="#fff" font-size="19.769" font-family="RobotoCondensed-Bold, Roboto" font-weight="700"><tspan x="0" y="0">o</tspan></text>
      <text id="o-6" data-name="o" transform="translate(1231.434 2495.34) rotate(-52.134)" fill="#fff" font-size="19.769" font-family="RobotoCondensed-Bold, Roboto" font-weight="700"><tspan x="0" y="0">o</tspan></text>
      <text id="k-2" data-name="k" transform="translate(1239.023 2485.264) rotate(-40.97)" fill="#fff" font-size="19.769" font-family="RobotoCondensed-Bold, Roboto" font-weight="700"><tspan x="0" y="0">k</tspan></text>
      <text id="s-3" data-name="s" transform="translate(1248.742 2476.672) rotate(-30.354)" fill="#fff" font-size="19.769" font-family="RobotoCondensed-Bold, Roboto" font-weight="700"><tspan x="0" y="0">s</tspan></text>
      <text id="_7" data-name=" " transform="translate(1259.191 2470.715) rotate(-23.174)" fill="#fff" font-size="19.769" font-family="RobotoCondensed-Bold, Roboto" font-weight="700"><tspan x="0" y="0"> </tspan></text>
      <text id="s-4" data-name="s" transform="translate(1263.177 2468.693) rotate(-16.038)" fill="#fff" font-size="19.769" font-family="RobotoCondensed-Bold, Roboto" font-weight="700"><tspan x="0" y="0">s</tspan></text>
      <text id="o-7" data-name="o" transform="translate(1274.199 2465.262) rotate(-5.394)" fill="#fff" font-size="19.769" font-family="RobotoCondensed-Bold, Roboto" font-weight="700"><tspan x="0" y="0">o</tspan></text>
      <text id="_8" data-name=" " transform="matrix(0.999, 0.041, -0.041, 0.999, 1287.242, 2464.389)" fill="#fff" font-size="19.769" font-family="RobotoCondensed-Bold, Roboto" font-weight="700"><tspan x="0" y="0"> </tspan></text>
      <text id="b-3" data-name="b" transform="translate(1291.673 2464.162) rotate(10.129)" fill="#fff" font-size="19.769" font-family="RobotoCondensed-Bold, Roboto" font-weight="700"><tspan x="0" y="0">b</tspan></text>
      <text id="o-8" data-name="o" transform="translate(1304.376 2466.299) rotate(21.183)" fill="#fff" font-size="19.769" font-family="RobotoCondensed-Bold, Roboto" font-weight="700"><tspan x="0" y="0">o</tspan></text>
      <text id="m-2" data-name="m" transform="translate(1316.205 2470.215) rotate(34.65)" fill="#fff" font-size="19.769" font-family="RobotoCondensed-Bold, Roboto" font-weight="700"><tspan x="0" y="0">m</tspan></text>
      <text id="b-4" data-name="b" transform="translate(1331.15 2480.713) rotate(48.254)" fill="#fff" font-size="19.769" font-family="RobotoCondensed-Bold, Roboto" font-weight="700"><tspan x="0" y="0">b</tspan></text>
      <path id="Path_35224-2" data-name="Path 35224" d="M0,0H1409.212V619.813H0Z" transform="translate(684 2268.172)" fill="none"/>
      <path id="Path_35115" data-name="Path 35115" d="M790.2,308.585a64.021,64.021,0,1,1-64.021-64.021A64.021,64.021,0,0,1,790.2,308.585" transform="translate(437.605 2267.701)" fill="#efd521"/>
      <text id="S-5" data-name="S" transform="matrix(-0.777, 0.63, -0.63, -0.777, 1197.541, 2608.289)" fill="#ff3200" font-size="15.575" font-family="RobotoCondensed-Bold, Roboto" font-weight="700"><tspan x="0" y="0">S</tspan></text>
      <text id="A" transform="translate(1188.232 2615.941) rotate(157.032)" fill="#ff3200" font-size="15.576" font-family="RobotoCondensed-Bold, Roboto" font-weight="700"><tspan x="0" y="0">A</tspan></text>
      <text id="Y" transform="matrix(-0.988, 0.154, -0.154, -0.988, 1177.06, 2620.867)" fill="#ff3200" font-size="15.576" font-family="RobotoCondensed-Bold, Roboto" font-weight="700"><tspan x="0" y="0">Y</tspan></text>
      <text id="_9" data-name=" " transform="translate(1163.943 2622.418) rotate(-177.561)" fill="#ff3200" font-size="15.576" font-family="RobotoCondensed-Bold, Roboto" font-weight="700"><tspan x="0" y="0"> </tspan></text>
      <text id="C" transform="translate(1159.093 2622.623) rotate(-166.163)" fill="#ff3200" font-size="15.575" font-family="RobotoCondensed-Bold, Roboto" font-weight="700"><tspan x="0" y="0">C</tspan></text>
      <text id="H" transform="translate(1146.391 2619.549) rotate(-150.005)" fill="#ff3200" font-size="15.576" font-family="RobotoCondensed-Bold, Roboto" font-weight="700"><tspan x="0" y="0">H</tspan></text>
      <text id="E" transform="translate(1134.954 2612.666) rotate(-134.892)" fill="#ff3200" font-size="15.576" font-family="RobotoCondensed-Bold, Roboto" font-weight="700"><tspan x="0" y="0">E</tspan></text>
      <text id="E-2" data-name="E" transform="translate(1127.01 2604.639) rotate(-120.875)" fill="#ff3200" font-size="15.576" font-family="RobotoCondensed-Bold, Roboto" font-weight="700"><tspan x="0" y="0">E</tspan></text>
      <text id="S-6" data-name="S" transform="translate(1121.23 2595.221) rotate(-106.563)" fill="#ff3200" font-size="15.575" font-family="RobotoCondensed-Bold, Roboto" font-weight="700"><tspan x="0" y="0">S</tspan></text>
      <text id="E-3" data-name="E" transform="translate(1117.752 2583.385) rotate(-91.936)" fill="#ff3200" font-size="15.576" font-family="RobotoCondensed-Bold, Roboto" font-weight="700"><tspan x="0" y="0">E</tspan></text>
      <text id="S-7" data-name="S" transform="translate(1129.963 2544.201) rotate(-39.041)" fill="#ff3200" font-size="15.576" font-family="RobotoCondensed-Bold, Roboto" font-weight="700"><tspan x="0" y="0">S</tspan></text>
      <text id="A-2" data-name="A" transform="matrix(0.921, -0.39, 0.39, 0.921, 1139.293, 2536.561)" fill="#ff3200" font-size="15.575" font-family="RobotoCondensed-Bold, Roboto" font-weight="700"><tspan x="0" y="0">A</tspan></text>
      <text id="Y-2" data-name="Y" transform="translate(1150.348 2531.709) rotate(-8.845)" fill="#ff3200" font-size="15.576" font-family="RobotoCondensed-Bold, Roboto" font-weight="700"><tspan x="0" y="0">Y</tspan></text>
      <text id="_10" data-name=" " transform="translate(1163.439 2530.006) rotate(2.439)" fill="#ff3200" font-size="15.576" font-family="RobotoCondensed-Bold, Roboto" font-weight="700"><tspan x="0" y="0"> </tspan></text>
      <text id="C-2" data-name="C" transform="translate(1168.418 2529.891) rotate(13.838)" fill="#ff3200" font-size="15.576" font-family="RobotoCondensed-Bold, Roboto" font-weight="700"><tspan x="0" y="0">C</tspan></text>
      <text id="H-2" data-name="H" transform="translate(1181.126 2533.016) rotate(29.997)" fill="#ff3200" font-size="15.575" font-family="RobotoCondensed-Bold, Roboto" font-weight="700"><tspan x="0" y="0">H</tspan></text>
      <text id="E-4" data-name="E" transform="translate(1192.6 2539.732) rotate(45.108)" fill="#ff3200" font-size="15.576" font-family="RobotoCondensed-Bold, Roboto" font-weight="700"><tspan x="0" y="0">E</tspan></text>
      <text id="E-5" data-name="E" transform="matrix(0.513, 0.858, -0.858, 0.513, 1200.492, 2547.809)" fill="#ff3200" font-size="15.575" font-family="RobotoCondensed-Bold, Roboto" font-weight="700"><tspan x="0" y="0">E</tspan></text>
      <text id="S-8" data-name="S" transform="translate(1206.279 2557.324) rotate(73.438)" fill="#ff3200" font-size="15.576" font-family="RobotoCondensed-Bold, Roboto" font-weight="700"><tspan x="0" y="0">S</tspan></text>
      <text id="E-6" data-name="E" transform="translate(1209.76 2569.143) rotate(88.062)" fill="#ff3200" font-size="15.576" font-family="RobotoCondensed-Bold, Roboto" font-weight="700"><tspan x="0" y="0">E</tspan></text>
      <path id="Path_35116" data-name="Path 35116" d="M760.994,308.585a34.813,34.813,0,1,1-34.813-34.813,34.812,34.812,0,0,1,34.813,34.813" transform="translate(437.605 2267.701)" fill="#ff3200"/>
      <path id="Path_35117" data-name="Path 35117" d="M745.965,332.713a6.3,6.3,0,0,1-8.343-3.166,9.565,9.565,0,0,0-3.21-4,23.922,23.922,0,0,1-17.555-.424,23.882,23.882,0,0,1-12.929-13.3,22.728,22.728,0,0,1-.779-2.347.7.7,0,0,1,.679-.891h.014a.706.706,0,0,1,.667.491,21.373,21.373,0,0,0,.826,2.163,22.8,22.8,0,0,0,20.85,13.612,22.094,22.094,0,0,0,5.293-.613c.238-.058.476-.12.71-.185l.04-.01c.216-.057.433-.123.645-.188.27-.083.542-.173.808-.267.23-.08.462-.166.692-.255l.011,0c.234-.087.466-.185.7-.282.18-.075.361-.155.541-.238.109-.05.216-.1.324-.152.173-.081.343-.164.513-.252.19-.092.381-.195.573-.3.295-.158.587-.325.872-.494.17-.105.34-.206.506-.314l.132-.087a14.471,14.471,0,0,1,1.5,1.367,15.95,15.95,0,0,1,3.006,4.528.363.363,0,0,0,.329.214.33.33,0,0,0,.147-.034.354.354,0,0,0,.18-.476,16.538,16.538,0,0,0-3.083-4.661,15.157,15.157,0,0,0-1.456-1.353c.173-.123.347-.244.519-.37q.541-.4,1.057-.83c.086-.069.169-.141.256-.216.183-.155.367-.317.547-.487.163-.148.321-.3.481-.451a21.44,21.44,0,0,0,1.582-1.691,22.783,22.783,0,0,0,4.261-7.676.7.7,0,0,1,1.346.4,23.639,23.639,0,0,1-.776,2.344,24.126,24.126,0,0,1-3.551,6.169,22.651,22.651,0,0,1,4.244,6.385,6.307,6.307,0,0,1-3.166,8.34" transform="translate(437.605 2267.701)" fill="#efd521"/>
      <path id="Path_35118" data-name="Path 35118" d="M738.444,298.822c0,3.8-1.688,6.879-3.768,6.879s-3.77-3.08-3.77-6.879,1.688-6.88,3.77-6.88,3.768,3.08,3.768,6.88" transform="translate(437.605 2267.701)" fill="#efd900"/>
      <path id="Path_35119" data-name="Path 35119" d="M721.456,298.822c0,3.8-1.687,6.879-3.768,6.879s-3.769-3.08-3.769-6.879,1.687-6.88,3.769-6.88,3.768,3.08,3.768,6.88" transform="translate(437.605 2267.701)" fill="#efd900"/>
      <path id="Path_35120" data-name="Path 35120" d="M738.443,298.822c0,3.8-1.687,6.879-3.767,6.879s-3.77-3.08-3.77-6.879,1.688-6.88,3.77-6.88,3.767,3.08,3.767,6.88" transform="translate(437.605 2267.701)" fill="#efd521"/>
      <path id="Path_35121" data-name="Path 35121" d="M721.456,298.822c0,3.8-1.688,6.879-3.768,6.879s-3.769-3.08-3.769-6.879,1.687-6.88,3.769-6.88,3.768,3.08,3.768,6.88" transform="translate(437.605 2267.701)" fill="#efd521"/>
      <path id="Path_35098" data-name="Path 35098" d="M677.573,720.958H461.613a28.283,28.283,0,0,1,0-56.566h215.96a28.283,28.283,0,1,1,0,56.566" transform="translate(835.605 1922.02)" fill="#00d367"/>
      <path id="Path_35099" data-name="Path 35099" d="M677.573,720.958H461.613a28.283,28.283,0,0,1,0-56.566h215.96a28.283,28.283,0,1,1,0,56.566Z" transform="translate(835.605 1922.02)" fill="none" stroke="#241f20" stroke-miterlimit="10" stroke-width="1.597"/>
      <path id="Path_35100" data-name="Path 35100" d="M680.156,693.1l0-.2v-6.877l-3.554-3.554-.414-.151a35.686,35.686,0,0,0-11.158-1.517c-6.357,0-10.784,1.293-12.81,3.643v-.886l-2.37-2.369H639.438v8.928c0,1.813-1.189,2.87-3.269,2.917v-8.291l-3.553-3.554H622.2v7.165c-.093-.083-.187-.166-.283-.247a10.174,10.174,0,0,0-1.183-1.185,10.285,10.285,0,0,0-1.186-1.185,11.006,11.006,0,0,0-2.52-2.168,23.732,23.732,0,0,0-22.246,0,11.658,11.658,0,0,0-1.746,1.353l-3.554-3.733H579.068v3.474l-.876-1-.471-.286a23.9,23.9,0,0,0-21.963.19A11.6,11.6,0,0,0,554,684.932v-.185l-3.554-3.554H540.032v12.745h-.7v-1.183h-12v-8.008l-3.554-3.554H513.358v2.369l-1.481-2.369H485.935v7.039c-.109-.1-.218-.2-.331-.291a1970.229,1970.229,0,0,1-2.369-2.369,9.779,9.779,0,0,0-1.867-1.71,17.115,17.115,0,0,0-9.912-2.669H456.98V700.6l3.554,3.554h14.474a17.135,17.135,0,0,0,9.954-2.671,10.03,10.03,0,0,0,1.078-.883l3.447,3.554h26.357v-1.185h1.068v1.185H542.88v-1.185h.7v1.185H554v-7.282q.2.186.412.369a9.93,9.93,0,0,0,1.183,1.182,10.148,10.148,0,0,0,1.186,1.187,10.923,10.923,0,0,0,2.53,2.173,21.074,21.074,0,0,0,11.112,2.759,32.969,32.969,0,0,0,11.013-1.623v.05h1.185v1.185h10.416v-7.276q.2.189.411.369a4064.54,4064.54,0,0,1,2.37,2.369,10.946,10.946,0,0,0,2.519,2.167,23.8,23.8,0,0,0,22.246,0,9.723,9.723,0,0,0,3.824-4.249c.231.243,4.287,4.289,5.043,4.78,2.309,1.5,5.622,2.228,10.13,2.228s7.822-.729,10.13-2.228a7.91,7.91,0,0,0,2.3-2.235q.406.22.856.43l-.192.471.5.271c3.609,1.969,9.7,3.291,15.156,3.291,4.256,0,7.792-.722,10.227-2.087,2.353-1.321,3.651-3.243,3.651-5.416a4.723,4.723,0,0,0-2.05-3.938" transform="translate(835.605 1922.02)" fill="#ff3200"/>
      <path id="Path_35101" data-name="Path 35101" d="M457.613,681.826h13.842c8.01,0,13.09,3.785,13.09,9.073s-4.976,9.071-13.09,9.071H457.613Zm14.179,12.053a3.018,3.018,0,1,0,0-5.988h-5.029v5.988Z" transform="translate(835.605 1922.02)" fill="#fff"/>
      <path id="Path_35102" data-name="Path 35102" d="M457.613,681.826h13.842c8.01,0,13.09,3.785,13.09,9.073s-4.976,9.071-13.09,9.071H457.613Zm14.179,12.053a3.018,3.018,0,1,0,0-5.988h-5.029v5.988Z" transform="translate(835.605 1922.02)" fill="none" stroke="#ff3200" stroke-miterlimit="10" stroke-width="1.264"/>
      <path id="Path_35103" data-name="Path 35103" d="M486.567,681.826h24.678v5.521H495.691v1.5H509.87v4.328H495.691v1.271h15.967v5.521H486.567Z" transform="translate(835.605 1922.02)" fill="#fff"/>
      <path id="Path_35104" data-name="Path 35104" d="M486.567,681.826h24.678v5.521H495.691v1.5H509.87v4.328H495.691v1.271h15.967v5.521H486.567Z" transform="translate(835.605 1922.02)" fill="none" stroke="#ff3200" stroke-miterlimit="10" stroke-width="1.264"/>
      <path id="Path_35105" data-name="Path 35105" d="M513.991,681.826h9.15v11.56h15.553v6.584h-24.7Z" transform="translate(835.605 1922.02)" fill="#fff"/>
      <path id="Path_35106" data-name="Path 35106" d="M513.991,681.826h9.15v11.56h15.553v6.584h-24.7Z" transform="translate(835.605 1922.02)" fill="none" stroke="#ff3200" stroke-miterlimit="10" stroke-width="1.264"/>
      <rect id="Rectangle_3539" data-name="Rectangle 3539" width="9.15" height="18.145" transform="translate(1376.269 2603.846)" fill="#fff"/>
      <rect id="Rectangle_3540" data-name="Rectangle 3540" width="9.15" height="18.145" transform="translate(1376.269 2603.846)" fill="none" stroke="#ff3200" stroke-miterlimit="10" stroke-width="1.264"/>
      <path id="Path_35107" data-name="Path 35107" d="M551.913,690.9c0-5.5,6.169-9.461,14.957-9.461a20.492,20.492,0,0,1,10.524,2.489l-2.593,6.065a13.326,13.326,0,0,0-7.413-1.97c-3.887,0-6.272,1.192-6.272,2.877s3.031,2.877,7.05,2.877a20.8,20.8,0,0,0,9.8-2.282v7.181a31.883,31.883,0,0,1-11.094,1.685c-8.788,0-14.957-3.941-14.957-9.461" transform="translate(835.605 1922.02)" fill="#fff"/>
      <path id="Path_35108" data-name="Path 35108" d="M551.913,690.9c0-5.5,6.169-9.461,14.957-9.461a20.492,20.492,0,0,1,10.524,2.489l-2.593,6.065a13.326,13.326,0,0,0-7.413-1.97c-3.887,0-6.272,1.192-6.272,2.877s3.031,2.877,7.05,2.877a20.8,20.8,0,0,0,9.8-2.282v7.181a31.883,31.883,0,0,1-11.094,1.685C558.082,700.36,551.913,696.419,551.913,690.9Z" transform="translate(835.605 1922.02)" fill="none" stroke="#ff3200" stroke-miterlimit="10" stroke-width="1.264"/>
      <rect id="Rectangle_3541" data-name="Rectangle 3541" width="9.15" height="18.145" transform="translate(1415.306 2603.846)" fill="#fff"/>
      <rect id="Rectangle_3542" data-name="Rectangle 3542" width="9.15" height="18.145" transform="translate(1415.306 2603.846)" fill="none" stroke="#ff3200" stroke-miterlimit="10" stroke-width="1.264"/>
      <path id="Path_35109" data-name="Path 35109" d="M590.95,690.9c0-5.5,6.144-9.461,14.957-9.461s14.956,3.965,14.956,9.461c0,5.52-6.143,9.461-14.956,9.461s-14.957-3.941-14.957-9.461m20.685,0c0-1.659-2.333-2.877-5.728-2.877-3.422,0-5.756,1.218-5.756,2.877,0,1.684,2.334,2.877,5.756,2.877,3.4,0,5.728-1.193,5.728-2.877" transform="translate(835.605 1922.02)" fill="#fff"/>
      <path id="Path_35110" data-name="Path 35110" d="M590.95,690.9c0-5.5,6.144-9.461,14.957-9.461s14.956,3.965,14.956,9.461c0,5.52-6.143,9.461-14.956,9.461S590.95,696.419,590.95,690.9Zm20.685,0c0-1.659-2.333-2.877-5.728-2.877-3.422,0-5.756,1.218-5.756,2.877,0,1.684,2.334,2.877,5.756,2.877C609.3,693.776,611.635,692.583,611.635,690.9Z" transform="translate(835.605 1922.02)" fill="none" stroke="#ff3200" stroke-miterlimit="10" stroke-width="1.264"/>
      <path id="Path_35111" data-name="Path 35111" d="M622.833,691.443v-9.618h9.15v8.3c0,2.307,1.607,3.551,4.044,3.551s4.044-1.244,4.044-3.551v-8.3h9.149v9.618c0,6.221-4.69,8.916-13.193,8.916s-13.194-2.7-13.194-8.916" transform="translate(835.605 1922.02)" fill="#fff"/>
      <path id="Path_35112" data-name="Path 35112" d="M622.833,691.443v-9.618h9.15v8.3c0,2.307,1.607,3.551,4.044,3.551s4.044-1.244,4.044-3.551v-8.3h9.149v9.618c0,6.222-4.69,8.916-13.193,8.916S622.833,697.665,622.833,691.443Z" transform="translate(835.605 1922.02)" fill="none" stroke="#ff3200" stroke-miterlimit="10" stroke-width="1.264"/>
      <path id="Path_35113" data-name="Path 35113" d="M649.921,697.146,652.1,691.8c2.67,2.152,7.387,3.267,12.054,3.267,1.839,0,3.032-.259,3.032-.6,0-.364-.57-.6-3.163-.6-7.7,0-12.416-2.591-12.416-6.065,0-3.733,4.252-6.377,13.428-6.377a35.464,35.464,0,0,1,10.938,1.477v5.47a25.935,25.935,0,0,0-9.747-1.788c-2.046,0-3.55.233-3.55.648,0,.362.57.57,2.955.57,9.15,0,12.391,2.489,12.391,5.677,0,3.809-4.46,6.868-13.247,6.868-5.521,0-11.431-1.347-14.852-3.213" transform="translate(835.605 1922.02)" fill="#fff"/>
      <path id="Path_35114" data-name="Path 35114" d="M649.921,697.146,652.1,691.8c2.67,2.152,7.387,3.267,12.054,3.267,1.839,0,3.032-.259,3.032-.6,0-.364-.57-.6-3.163-.6-7.7,0-12.416-2.591-12.416-6.065,0-3.733,4.252-6.377,13.428-6.377a35.464,35.464,0,0,1,10.938,1.477v5.47a25.935,25.935,0,0,0-9.747-1.788c-2.046,0-3.55.233-3.55.648,0,.362.57.57,2.955.57,9.15,0,12.391,2.489,12.391,5.677,0,3.809-4.46,6.868-13.247,6.868C659.252,700.359,653.342,699.012,649.921,697.146Z" transform="translate(835.605 1922.02)" fill="none" stroke="#ff3200" stroke-miterlimit="10" stroke-width="1.264"/>
      <path id="Path_35224-3" data-name="Path 35224" d="M0,0H1409.212V619.813H0Z" transform="translate(1091 2152.113)" fill="none"/>
      <path id="Path_35177" data-name="Path 35177" d="M426.17,574.142c1.314-11.252,30.832-29.563,26.352-39.226-4.614-9.958-39.559,1.693-47.757-5.86-7.909-7.286.953-43.168-9.772-47.1s-27.154,29.178-37.9,29.627c-11.138.466-30.274-31.009-40.231-26.395s1.7,39.56-5.858,47.758c-7.287,7.91-43.17-.953-47.1,9.773-2.458,6.71,9.581,15.654,19.05,24.04H255.393v22.149h14.859v19.962H271.7c-3.765,4.566-6.056,8.752-4.562,11.977,4.616,9.956,39.559-1.7,47.759,5.857,7.909,7.287-.955,43.171,9.772,47.1s27.153-29.179,37.9-29.627c11.138-.465,30.274,31.011,40.23,26.4s-1.694-39.56,5.859-47.759c2.572-2.792,8.712-3.493,15.752-3.7a71.88,71.88,0,0,0,10.883.947c19.025,0,28.977-9.557,28.977-18.995v-26.92Z" transform="translate(580.563 1960.484)" fill="#044aaf"/>
      <path id="Path_35178" data-name="Path 35178" d="M382.984,528.8l8.741-.658-8.741-.656a7.431,7.431,0,0,1-6.85-6.853l-.658-8.739-.656,8.739a7.432,7.432,0,0,1-6.851,6.853l-8.739.656,8.739.658a7.426,7.426,0,0,1,6.851,6.85l.656,8.74.658-8.74a7.426,7.426,0,0,1,6.85-6.85" transform="translate(580.563 1960.484)" fill="#efd521"/>
      <path id="Path_35179" data-name="Path 35179" d="M339.355,520.387l5.184-.389-5.184-.39a4.406,4.406,0,0,1-4.063-4.065l-.391-5.184-.39,5.184a4.407,4.407,0,0,1-4.063,4.065l-5.184.39,5.184.389a4.407,4.407,0,0,1,4.063,4.063l.39,5.186.391-5.186a4.406,4.406,0,0,1,4.063-4.063" transform="translate(580.563 1960.484)" fill="#efd521"/>
      <path id="Path_35180" data-name="Path 35180" d="M388.063,644.245l3.432-.258-3.432-.257a2.919,2.919,0,0,1-2.691-2.691l-.256-3.432-.259,3.432a2.919,2.919,0,0,1-2.69,2.691l-3.431.257,3.431.258a2.919,2.919,0,0,1,2.69,2.69l.259,3.431.256-3.431a2.919,2.919,0,0,1,2.691-2.69" transform="translate(580.563 1960.484)" fill="#efd521"/>
      <path id="Path_35181" data-name="Path 35181" d="M302.687,551.308l3.433-.259-3.433-.257A2.917,2.917,0,0,1,300,548.1l-.257-3.433-.258,3.433a2.918,2.918,0,0,1-2.691,2.69l-3.431.257,3.431.259a2.919,2.919,0,0,1,2.691,2.69l.258,3.431L300,554a2.919,2.919,0,0,1,2.69-2.69" transform="translate(580.563 1960.484)" fill="#efd521"/>
      <path id="Path_35182" data-name="Path 35182" d="M416.654,561.38l3.433-.258-3.433-.257a2.919,2.919,0,0,1-2.69-2.691l-.257-3.432-.258,3.432a2.919,2.919,0,0,1-2.691,2.691l-3.431.257,3.431.258a2.919,2.919,0,0,1,2.691,2.69l.258,3.431.257-3.431a2.919,2.919,0,0,1,2.69-2.69" transform="translate(580.563 1960.484)" fill="#efd521"/>
      <path id="Path_35183" data-name="Path 35183" d="M348.287,624.418l7.4-.556-7.4-.557a6.284,6.284,0,0,1-5.8-5.795l-.555-7.394-.558,7.394a6.28,6.28,0,0,1-5.793,5.795l-7.4.557,7.4.556a6.281,6.281,0,0,1,5.793,5.795l.558,7.394.555-7.394a6.285,6.285,0,0,1,5.8-5.795" transform="translate(580.563 1960.484)" fill="#efd521"/>
      <path id="Path_35184" data-name="Path 35184" d="M358.677,535.591a1.91,1.91,0,1,1-1.909-1.911,1.909,1.909,0,0,1,1.909,1.911" transform="translate(580.563 1960.484)" fill="#efd521"/>
      <path id="Path_35185" data-name="Path 35185" d="M374.818,621.4a1.91,1.91,0,1,1-1.91-1.909,1.911,1.911,0,0,1,1.91,1.909" transform="translate(580.563 1960.484)" fill="#efd521"/>
      <path id="Path_35186" data-name="Path 35186" d="M308.03,610.116a1.911,1.911,0,1,1-1.911-1.911,1.91,1.91,0,0,1,1.911,1.911" transform="translate(580.563 1960.484)" fill="#efd521"/>
      <path id="Path_35187" data-name="Path 35187" d="M422,541.472a1.911,1.911,0,1,1-1.91-1.909,1.911,1.911,0,0,1,1.91,1.909" transform="translate(580.563 1960.484)" fill="#efd521"/>
      <path id="Path_35188" data-name="Path 35188" d="M307.667,568.216l3.76-9.22c4.609,3.715,12.755,5.639,20.811,5.639,3.177,0,5.236-.447,5.236-1.029,0-.627-.985-1.029-5.46-1.029-13.293,0-21.438-4.475-21.438-10.474,0-6.443,7.341-11.009,23.183-11.009,8.459,0,15.487,1.3,18.887,2.551v9.443A44.743,44.743,0,0,0,335.819,550c-3.536,0-6.133.4-6.133,1.117,0,.628.986.985,5.1.985,15.8,0,21.394,4.3,21.394,9.8,0,6.58-7.7,11.861-22.871,11.861-9.533,0-19.738-2.328-25.645-5.549" transform="translate(580.563 1960.484)" fill="#ffda00"/>
      <path id="Path_35189" data-name="Path 35189" d="M357.8,561.144c0-7.294,6.8-12.665,19.826-12.665,13.113,0,19.737,5.326,19.737,12.62,0,7.25-6.713,12.666-19.827,12.666-13.067,0-19.736-5.325-19.736-12.621m26.36,0c0-2.372-2.462-4.52-6.669-4.52-4.117,0-6.49,2.1-6.49,4.475s2.462,4.565,6.58,4.565c4.162,0,6.579-2.192,6.579-4.52" transform="translate(580.563 1960.484)" fill="#ffda00"/>
      <path id="Path_35190" data-name="Path 35190" d="M275.644,583.517H260.785V572.149h45.473v11.367H291.4v19.961H275.644Z" transform="translate(580.563 1960.484)" fill="#ffda00"/>
      <path id="Path_35191" data-name="Path 35191" d="M306.436,591.528c0-6.937,6.043-12.666,16.47-12.666,6.267,0,11.95,2.148,15.217,5.505h.134l9.041-4.834h1.343v23.945H334.005v-7.205h-.581c-.627,4.3-5.952,7.652-12.845,7.652-9.129,0-14.143-4.922-14.143-12.4m28.465-.179c0-2.73-2.775-4.386-6.49-4.386s-6.624,1.7-6.624,4.431c0,2.685,2.82,4.385,6.579,4.385,3.671,0,6.535-1.7,6.535-4.43" transform="translate(580.563 1960.484)" fill="#ffda00"/>
      <path id="Path_35192" data-name="Path 35192" d="M350.208,600.524l2.239-7.609a31.834,31.834,0,0,0,13.291,3.625c3.357,0,4.521-.178,4.521-.806,0-.581-.895-.581-5.415-1.162-7.475-.94-11.95-3.268-11.95-7.743,0-4.386,5.415-7.967,15.663-7.967a44.05,44.05,0,0,1,15.129,2.372v7.608a29.823,29.823,0,0,0-10.875-2.416c-2.686,0-3.984.179-3.984.894,0,.673,1.118.673,5.146,1.164,8.818,1.03,12.352,3.447,12.352,7.744,0,4.832-5.594,7.922-16.425,7.922-8.056,0-14.276-1.03-19.692-3.626" transform="translate(580.563 1960.484)" fill="#ffda00"/>
      <path id="Path_35193" data-name="Path 35193" d="M392.1,594.616v-6.892h-5.952v-5.818l17.813-9.713h2.775v7.341h8.816v8.19h-8.816v4.743c0,2.283,1.789,2.551,4.564,2.551a20.905,20.905,0,0,0,3.849-.357v9.13c-1.342.224-5.683.358-6.8.358-9.756,0-16.246-2.058-16.246-9.533" transform="translate(580.563 1960.484)" fill="#ffda00"/>
      <path id="Path_35194" data-name="Path 35194" d="M418.64,612.294l2.239-9.443a31.3,31.3,0,0,0,12.531,2.6c6.669,0,10.831-4.252,10.831-7.833v-.045H443.7c-1.073,3.4-4.878,6.222-11.233,6.222-7.788,0-12.487-3.938-12.487-9.13V579.533h14.635v13.248c0,2.507,2.1,4.118,4.923,4.118,2.774,0,4.7-1.656,4.7-4.52V579.533h14.635v21.528c0,6.445-8.011,13.606-23.587,13.606a63.321,63.321,0,0,1-16.649-2.373" transform="translate(580.563 1960.484)" fill="#ffda00"/>
      <path id="Path_35224-4" data-name="Path 35224" d="M0,0H1409.212V619.813H0Z" transform="translate(835.957 2190.578)" fill="none"/>
    </g>
    <rect id="Rectangle_3565" data-name="Rectangle 3565" width="299" height="166" transform="translate(379 1983)" fill="#fff"/>
    <g id="Rectangle_3566" data-name="Rectangle 3566" transform="translate(371 1933)" stroke="#fff" stroke-width="2">
      <rect width="442" height="166" stroke="none"/>
      <rect x="1" y="1" width="440" height="164" fill="none"/>
    </g>
    <text id="A_world_for_food_and_its_lovers." data-name="A world for food and its lovers." transform="translate(403 1946)" fill="#fff" font-size="58" font-family="RobotoCondensed-Bold, Roboto" font-weight="700" letter-spacing="-0.002em"><tspan x="0" y="61">A world for food </tspan><tspan x="0" y="120">and its lovers.</tspan></text>
    <text id="Banner_for_advertising" data-name="Banner for advertising" transform="translate(404 2103)" font-size="28" font-family="RobotoCondensed-Regular, Roboto" letter-spacing="-0.002em"><tspan x="0" y="29">Banner for advertising</tspan></text>
  </g>
</svg>
